<?xml version="1.0" standalone="no"?><!DOCTYPE svg PUBLIC "-//W3C//DTD SVG 1.1//EN" "http://www.w3.org/Graphics/SVG/1.1/DTD/svg11.dtd"><svg width="200" height="200" viewBox="0 0 200 200" version="1.1" xmlns="http://www.w3.org/2000/svg" xmlns:xlink="http://www.w3.org/1999/xlink"><defs><style type="text/css"><![CDATA[
@font-face { font-family: ifont; src: url("http://at.alicdn.com/t/font_1442373896_4754455.eot?#iefix") format("embedded-opentype"), url("http://at.alicdn.com/t/font_1442373896_4754455.woff") format("woff"), url("http://at.alicdn.com/t/font_1442373896_4754455.ttf") format("truetype"), url("http://at.alicdn.com/t/font_1442373896_4754455.svg#ifont") format("svg"); }

]]></style></defs><g class="transform-group"><g transform="scale(0.1953125, 0.1953125)"><path d="M750.933333 486.4c-12.8-4.266667-21.333333-8.533333-17.066667-25.6 17.066667-38.4 17.066667-72.533333 0-98.133333-29.866667-42.666667-115.2-42.666667-209.066667 0 0 0-29.866667 12.8-21.333333-12.8 17.066667-51.2 12.8-89.6-8.533333-115.2-51.2-55.466667-187.733333 0-307.2 123.733333C98.133333 456.533333 46.933333 554.666667 46.933333 640c0 162.133333 200.533333 256 392.533333 256 256 0 426.666667-153.6 426.666667-273.066667C866.133333 546.133333 806.4 503.466667 750.933333 486.4zM439.466667 840.533333c-153.6 17.066667-290.133333-55.466667-298.666667-162.133333-8.533333-106.666667 106.666667-204.8 264.533333-217.6 153.6-17.066667 290.133333 55.466667 298.666667 162.133333S597.333333 823.466667 439.466667 840.533333zM921.6 192C857.6 119.466667 768 93.866667 682.666667 110.933333c-21.333333 4.266667-29.866667 25.6-25.6 42.666667 4.266667 21.333333 21.333333 34.133333 42.666667 29.866667 59.733333-12.8 123.733333 4.266667 166.4 55.466667 42.666667 51.2 55.466667 119.466667 38.4 179.2-4.266667 21.333333 4.266667 38.4 21.333333 46.933333 17.066667 8.533333 38.4-4.266667 46.933333-25.6C998.4 358.4 981.333333 260.266667 921.6 192zM810.666667 281.6c-29.866667-34.133333-72.533333-46.933333-115.2-38.4-17.066667 4.266667-25.6 21.333333-25.6 38.4 4.266667 17.066667 21.333333 29.866667 38.4 25.6 21.333333-4.266667 42.666667 0 55.466667 17.066667C776.533333 341.333333 780.8 362.666667 776.533333 384c-4.266667 17.066667 4.266667 34.133333 21.333333 38.4 17.066667 4.266667 34.133333-4.266667 38.4-21.333333C849.066667 362.666667 840.533333 315.733333 810.666667 281.6zM448 533.333333c-72.533333-21.333333-157.866667 17.066667-187.733333 85.333333-34.133333 68.266667 0 145.066667 72.533333 170.666667 76.8 25.6 170.666667-12.8 200.533333-89.6C563.2 627.2 524.8 554.666667 448 533.333333zM392.533333 708.266667c-12.8 25.6-46.933333 34.133333-72.533333 25.6-25.6-12.8-29.866667-38.4-17.066667-64 17.066667-25.6 46.933333-34.133333 68.266667-25.6S409.6 682.666667 392.533333 708.266667zM443.733333 644.266667c-4.266667 8.533333-17.066667 12.8-25.6 8.533333-8.533333-4.266667-12.8-12.8-8.533333-25.6 4.266667-8.533333 17.066667-12.8 25.6-8.533333C443.733333 622.933333 448 631.466667 443.733333 644.266667z" fill="#272636"></path></g></g></svg>