<svg width="200" height="200" viewBox="0 0 200 200" xmlns="http://www.w3.org/2000/svg">
  <path fill="#BBC7CC" d="M146.7 95c-2.5-.8-4.2-1.7-3.4-5 3.4-7.5 3.4-14.2 0-19.2-5.8-8.3-22.5-8.3-40.8 0 0 0-5.8 2.5-4.2-2.5 3.4-10 2.5-17.5-1.6-22.5-10-10.8-36.7 0-60 24.2-17.5 19.2-27.5 38.3-27.5 55 0 31.7 39 50 76.6 50 50 0 83.4-30 83.4-53.3 0-15-11.7-23.4-22.5-26.7zm-61 69.2c-30 3.3-56.5-11-58.2-31.7-1.7-20.8 20.8-40 51.7-42.5 30-3.3 56.6 10.8 58.3 31.7s-20.8 39-51.7 42.5zM180 37.5c-12.5-14.2-30-19.2-46.7-15.8-4 .8-5.8 5-5 8.3 1 4.2 4.2 6.7 8.4 5.8 11.6-2.5 24 1 32.5 11 8.3 10 10.8 23.2 7.5 35-1 4 .8 7.4 4 9 3.5 1.7 7.6-.8 9.3-5 5-15.8 1.7-35-10-48.3zM158.3 55c-5.8-6.7-14-9.2-22.5-7.5-3.3.8-5 4.2-5 7.5 1 3.3 4.2 5.8 7.5 5 4.2-.8 8.4 0 11 3.3 2.4 3.4 3.2 7.5 2.4 11.7-1 3.3.8 6.7 4 7.5 3.5.8 6.8-.8 7.6-4.2 2.5-7.5 1-16.6-5-23.3zm-70.8 49.2c-14.2-4.2-30.8 3.3-36.7 16.6-6.6 13.4 0 28.4 14.2 33.4 15 5 33.3-2.5 39.2-17.5 5.8-14.2-1.7-28.4-16.7-32.5zm-10.8 34c-2.5 5-9.2 6.8-14.2 5-5-2.4-5.8-7.4-3.3-12.4 3.3-5 9-6.6 13.3-5s7.5 7.5 4.2 12.5zm10-12.4c-1 1.7-3.4 2.5-5 1.7-1.7-.8-2.5-2.5-1.7-5 .8-1.7 3.3-2.5 5-1.7 1.7 1 2.5 2.5 1.7 5z"/>
</svg>
