<svg xmlns="http://www.w3.org/2000/svg" width="200" height="200">
  <path fill="#BBC7CC" d="M175.2 164l5.3 17.8L161 171c-7 2-14 3.7-21 3.7-33.8 0-60.3-23-60.3-51.6 0-28.3 26.5-51.5 60.2-51.5 31.7 0 60 23.2 60 51.6 0 16-10.6 30.3-24.8 41zm-54.8-64c-3.6 0-7 3.6-7 7 0 3.7 3.4 7.2 7 7.2 5.3 0 8.8-3.5 8.8-7 0-3.6-3.5-7.2-8.8-7.2zm39 0c-3.6 0-7 3.6-7 7 0 3.7 3.4 7.2 7 7.2 5.2 0 8.7-3.5 8.7-7 0-3.6-3.4-7.2-8.7-7.2zM75 124c0 5 .8 10 2.2 15h-6.6c-8.8 0-16-1.7-24.8-3.4L21.2 148l7-21.4C10.7 114.2 0 98.2 0 78.6 0 45 32 18.3 70.8 18.3c34.8 0 65.3 21.3 71.4 50-2.2-.3-4.5-.5-6.8-.5-33.6 0-60.2 25.2-60.2 56.3zM47.8 48.4c-5.3 0-10.7 3.5-10.7 9C37 62.5 42.6 66 48 66c5.3 0 8.8-3.6 8.8-9 0-5.3-3.5-8.8-8.8-8.8zm49.5 0c-5.3 0-10.6 3.5-10.6 9 0 5.2 5.3 8.8 10.6 8.8 5.4 0 9-3.6 9-9 0-5.3-3.6-8.8-9-8.8z"/>
</svg>
